<?xml version="1.0" encoding="utf-8"?>
<!-- Generator: Adobe Illustrator 25.4.1, SVG Export Plug-In . SVG Version: 6.00 Build 0)  -->
<svg version="1.1" id="Layer_1" xmlns="http://www.w3.org/2000/svg" xmlns:xlink="http://www.w3.org/1999/xlink" x="0px" y="0px"
	 viewBox="0 0 1296 117.3" style="enable-background:new 0 0 1296 117.3;" xml:space="preserve">
<style type="text/css">
	.st0{fill:#1B3967;}
</style>
<g>
</g>
<g>
	<path class="st0" d="M3.8,13.9c-1.3-1.3-1.3-5.2,0.5-5.6c5.5,0.3,12.4,0.5,20.3,0.5c5.3,0,10,0,15.8-0.5c0,10,5.6,19.8,12.7,35
		l10.6,22.7c1.6,3.2,6.4,12.4,8.7,16.4c2.1-3.9,4.7-8.9,9-18.4l8.2-17.7c7.9-16.6,11.3-24.2,14.8-38c7.4,0.6,12.4,0.5,17.2,0.5
		c5.3,0,12.7-0.2,18.5-0.5c1.8,1,1.8,4,0.5,5.6l-4.7,0.8c-6.6,1.3-9.8,3.1-9.8,11.6c0,33.2,0.3,50.6,1.3,70.9
		c0.3,7.4,1,11.1,7.3,12.1l5.2,0.6c1.3,1.3,1.3,5-0.3,5.6c-7.4-0.3-14.3-0.5-22.2-0.5c-7.2,0-16.1,0.2-23.8,0.5
		c-1.9-0.8-2.1-4.5-0.5-5.6l4.8-0.6c7.4-1.5,7.4-2.9,7.4-12.7l-0.3-41.9V36.3h-0.3C92.7,62,79.8,89,69.2,116.2
		c-0.8,0.6-1.9,1.1-3.2,1.1c-1.5,0-3.2-0.3-4.2-1c-6.3-20-25.5-59.1-34.5-80.1H27c-0.6,10.5-1,16.8-1.1,25.1
		c-0.2,10.5-0.3,26.6-0.3,36.3c0,8.1,1,10.1,7.4,11.3l6.3,1c1.3,1.1,1,4.8-0.3,5.6c-6-0.3-12.9-0.5-19-0.5c-5.2,0-11.8,0.2-18.2,0.5
		c-2.1-0.6-2.1-4.8-0.6-5.6l2.9-0.5c8.2-1.6,8.7-2.4,9.7-12.4c0.8-7.9,1.6-21.9,2.6-37.2c0.6-10.8,1.1-23.8,1.1-32.5
		c0-9.2-3.5-11.3-10-12.7L3.8,13.9z"/>
	<path class="st0" d="M166.5,80.6c0,16.9,5.3,29.3,14.7,29.3c9.2,0,12.1-10.5,12.1-25c-0.3-15.6-4.7-29.2-13.9-29.2
		C172.3,55.8,166.5,63,166.5,80.6 M143.3,84.1c-0.3-23,18-35.8,37.1-35.8s36.1,11.6,36.1,34.3c0,23.5-17.2,34.6-37.1,34.6
		C160.2,117.3,143.3,106.4,143.3,84.1"/>
	<path class="st0" d="M232.6,72c0-6.4,0-8.2-3.1-10.3l-2.3-1.4c-1.1-1-1.1-3.9,0-4.8c7.6-2.1,19.2-6.4,23.8-9.3
		c1.3,0,2.3,0.5,2.9,1.4c0,2.3-0.5,6.1-0.5,7.3c0,1,0.3,1.3,0.8,1.3c0.5,0,2.1-0.8,3.1-1.3c3.5-2.1,11.1-6.4,18.5-6.4
		c13.4,0,20.1,9.2,20.1,20.3v27.7c0,11.3,0.6,12.6,6.4,13.2l2.6,0.3c1.3,1,1.3,4.7-0.2,5.6c-5-0.3-11.8-0.5-19.5-0.5
		c-6.4,0-12.7,0.2-17.4,0.5c-1.4-1-1.4-4.7-0.2-5.6l2.9-0.5c3.7-0.5,4.3-1.8,4.3-10.6V71.6c0-6.3-3.2-11.4-11.3-11.4
		c-4.5,0-7.7,2.1-9,3.9c-1,1.1-1.3,3.1-1.3,6v28.8c0,8.9,0.6,10.2,4.7,10.8l2.6,0.3c1.3,1,1.3,4.7-0.2,5.6c-5-0.3-10.2-0.5-17.9-0.5
		c-6.8,0-13.4,0.2-19,0.5c-1.5-1-1.5-4.7-0.2-5.6l2.6-0.3c5.8-0.6,6.4-1.9,6.4-13.2V72z"/>
	<path class="st0" d="M340.9,59.3c-2.1,0-2.3,0.2-2.3,3.7v24.2c0,9,0,19,11.3,19c2.3,0,4.8-1.1,6.8-2.4c1.6,0.5,2.6,2.3,2.3,4.2
		c-4.5,4.8-13.2,9.3-23.2,9.3c-13.4,0-18-7.7-18-18.4V63c0-3.4-0.2-3.7-3.1-3.7h-5c-1.8-0.6-2.3-3.9-1-5c5-1.8,9.5-4.7,13.4-7.3
		c2.9-2.1,6.9-5.5,11.9-12.6c1.1-0.6,4-0.5,4.8,0.8v12.1c0,3.1,0.2,3.2,3.1,3.2h14.3c0.8,0.6,1.3,1.6,1.3,3.1c0,1.8-0.5,4.7-2.1,5.6
		H340.9z"/>
	<path class="st0" d="M396.2,69.8c2.3,0,4.8-0.3,6.6-1.5c0.8-0.5,1.1-2.1,1.1-3.7c0-5.3-3.1-8.9-8.5-8.9c-6.8,0-12.6,6.4-12.6,11.6
		c0,2.3,2.3,2.4,7.4,2.4H396.2z M385.6,76.9c-3.7,0-4,0.3-4,2.9c0,12.1,7.7,23.8,22.7,23.8c4.5,0,10.6-1,15-8.4
		c1.8-0.3,4.2,1,4.2,3.7c-6.6,13.7-18.5,18.4-28.2,18.4c-21.8,0-33.5-15.3-33.5-32.9c0-20.3,14.7-36.1,34.8-36.1
		c16.8,0,25.8,10.8,25.8,23.2c0,3.1-0.8,5.3-5.8,5.3H385.6z"/>
	<path class="st0" d="M512.5,96.4c0,11.3,0.6,12.6,6,13.2l3.1,0.3c1.3,1,1.3,4.7-0.2,5.6c-5.6-0.3-11.9-0.5-19.3-0.5
		c-7.2,0-14,0.2-19.3,0.5c-1.4-1-1.4-4.7-0.2-5.6l3.1-0.3c5.3-0.6,6-1.9,6-13.2V72c0-6.4,0-8.2-3.1-10.3l-2.3-1.4
		c-1.1-1-1.1-3.9,0-4.8c7.6-2.1,19-6.4,23.8-9.3c1.3,0,2.3,0.5,2.9,1.4c-0.3,4.8-0.5,11.9-0.5,19.2V96.4z"/>
	<path class="st0" d="M549.8,80.6c0,16.9,5.3,29.3,14.7,29.3c9.2,0,12.1-10.5,12.1-25c-0.3-15.6-4.7-29.2-13.9-29.2
		C555.6,55.8,549.8,63,549.8,80.6 M526.6,84.1c-0.3-23,18-35.8,37.1-35.8c19,0,36.1,11.6,36.1,34.3c0,23.5-17.2,34.6-37.1,34.6
		C543.6,117.3,526.6,106.4,526.6,84.1"/>
	<path class="st0" d="M615.9,72.4c0-6.4,0-8.2-3.1-10.3l-2.3-1.4c-1.1-1-1.1-3.9,0-4.8c7.4-2.1,18.5-6.4,23.5-9.7
		c1.3,0,2.3,0.5,2.9,1.5c-0.3,3.2-0.6,5.5-0.6,6.9c0,1.1,0.3,1.6,1.6,1.9c4.4-2.7,9-8.1,15.8-8.1c4.4,0,8.9,3.4,8.9,9.5
		c0,7.4-5.2,10.5-10.3,10.5c-2.3,0-4.2-1-6.3-2.9c-3.7-3.1-5.2-3.2-6.1-3.2c-2.3,0-3.1,3.5-3.1,9.7v24.8c0,11.3,0.6,12.6,6,13.1
		l5.2,0.5c1.3,1,1.3,4.7-0.2,5.6c-7.7-0.3-14.2-0.5-21.8-0.5c-6.6,0-13.7,0.2-19,0.5c-1.5-1-1.5-4.7-0.2-5.6l3.1-0.3
		c5.3-0.6,6-1.9,6-13.2V72.4z"/>
	<path class="st0" d="M696.2,69.8c2.3,0,4.8-0.3,6.6-1.5c0.8-0.5,1.1-2.1,1.1-3.7c0-5.3-3.1-8.9-8.5-8.9c-6.8,0-12.6,6.4-12.6,11.6
		c0,2.3,2.3,2.4,7.4,2.4H696.2z M685.5,76.9c-3.7,0-4,0.3-4,2.9c0,12.1,7.7,23.8,22.7,23.8c4.5,0,10.6-1,15-8.4
		c1.8-0.3,4.2,1,4.2,3.7c-6.6,13.7-18.5,18.4-28.2,18.4c-21.8,0-33.5-15.3-33.5-32.9c0-20.3,14.7-36.1,34.8-36.1
		c16.8,0,25.8,10.8,25.8,23.2c0,3.1-0.8,5.3-5.8,5.3H685.5z"/>
	<path class="st0" d="M802.7,50.6c0,4.5,0.2,4.8,4.5,4.8h11.1c8.4,0,10.2-1.1,11.9-8.9l0.8-4c1.1-1.3,5.2-1.3,6,0.2
		c-0.3,5.2-0.5,11-0.5,17.1c0,6.1,0.2,11.9,0.5,17.1c-0.8,1.5-4.8,1.6-6,0.2l-0.8-4c-1.8-7.7-3.5-9-11.9-9h-11.1
		c-4.4,0-4.5,0.2-4.5,5v19.2c0,7.4,0.6,12.6,2.6,15.3c2.1,2.9,5.2,4.2,16.9,4.2c14,0,19.5-0.5,28.4-18.7c1.3-1.8,5.3-1.1,6,0.8
		c-0.6,8.4-4.5,21.4-6.8,25.8c-4.2-0.2-10.3-0.3-16.9-0.3c-6.4-0.2-13.7-0.2-20.3-0.2h-20.9c-7.7,0-15.6,0.2-27.7,0.5
		c-1.3-1-1.3-4.8,0-5.6l7.6-1.1c7.3-1,8.2-2.1,8.2-16.9V31.8c0-14.7-1-15.8-8.2-17.1l-4-0.8c-1.5-1-1.3-4.7,0.3-5.6
		c3.9,0.2,7.7,0.3,11.6,0.3c3.9,0.2,7.7,0.2,11.6,0.2h34.2c10.3,0,19.5-0.2,21.6-0.5c0.2,2.6,1.3,14.2,2.1,25
		c-0.6,1.8-4.3,2.1-6,0.6c-1.8-5.6-4-10.5-6.1-12.7c-3.1-3.1-7.9-5-15.8-5H808c-5.3,0-5.3,0.3-5.3,6.3V50.6z"/>
	<path class="st0" d="M891.6,18.9c0,8.2-6.3,12.4-12.7,12.4c-7.4,0-11.9-5.2-11.9-12.1c0-7.4,6-12.4,12.7-12.4
		C886.7,6.8,891.6,12.1,891.6,18.9 M889.6,96.4c0,11.3,0.6,12.6,6,13.2l3.1,0.3c1.3,1,1.3,4.7-0.2,5.6c-5.6-0.3-11.9-0.5-19.3-0.5
		c-7.2,0-14,0.2-19.3,0.5c-1.4-1-1.4-4.7-0.2-5.6l3.1-0.3c5.3-0.6,6-1.9,6-13.2V72c0-6.4,0-8.2-3.1-10.3l-2.3-1.4
		c-1.1-1-1.1-3.9,0-4.8c7.6-2.1,19-6.4,23.8-9.3c1.3,0,2.3,0.5,2.9,1.4c-0.3,4.8-0.5,11.9-0.5,19.2V96.4z"/>
	<path class="st0" d="M914.1,72c0-6.4,0-8.2-3.1-10.3l-2.3-1.4c-1.1-1-1.1-3.9,0-4.8c7.6-2.1,19.2-6.4,23.8-9.3
		c1.3,0,2.3,0.5,2.9,1.4c0,2.3-0.5,6.1-0.5,7.3c0,1,0.3,1.3,0.8,1.3c0.5,0,2.1-0.8,3.1-1.3c3.5-2.1,11.1-6.4,18.5-6.4
		c13.4,0,20.1,9.2,20.1,20.3v27.7c0,11.3,0.6,12.6,6.4,13.2l2.6,0.3c1.3,1,1.3,4.7-0.2,5.6c-5-0.3-11.8-0.5-19.5-0.5
		c-6.4,0-12.7,0.2-17.4,0.5c-1.4-1-1.4-4.7-0.2-5.6l2.9-0.5c3.7-0.5,4.4-1.8,4.4-10.6V71.6c0-6.3-3.2-11.4-11.3-11.4
		c-4.5,0-7.7,2.1-9,3.9c-1,1.1-1.3,3.1-1.3,6v28.8c0,8.9,0.6,10.2,4.7,10.8l2.6,0.3c1.3,1,1.3,4.7-0.2,5.6c-5-0.3-10.2-0.5-17.9-0.5
		c-6.8,0-13.4,0.2-19,0.5c-1.5-1-1.5-4.7-0.2-5.6l2.6-0.3c5.8-0.6,6.4-1.9,6.4-13.2V72z"/>
	<path class="st0" d="M994.9,112.3c-1.8-3.2-2.9-11-2.6-18.2c1-1.6,4.5-1.8,5.5-0.3c2.1,6.6,8.2,16.1,16.4,16.1
		c4.8,0,8.4-2.9,8.4-8.4c0-6-5.2-9.3-10.6-12.1c-9.7-4.8-16.6-10.6-16.6-20.3c0-14,11.8-20.8,25.6-20.8c8.2,0,15.5,2.1,17.2,3.4
		c1.6,3.5,2.4,10,2.4,16.1c-0.6,1.8-4.7,1.8-5.6,0.6c-3.2-9.3-7.3-12.7-12.6-12.7c-4.7,0-8.1,2.7-8.1,7.1c0,3.7,3.1,6.8,10.3,10.3
		c11,5.3,17.7,12.1,17.7,22.6c-0.2,14.3-12.4,21.6-27.6,21.6C1005.7,117.3,999.2,115.7,994.9,112.3"/>
	<path class="st0" d="M1081,59.3c-2.1,0-2.3,0.2-2.3,3.7v24.2c0,9,0,19,11.3,19c2.3,0,4.8-1.1,6.8-2.4c1.6,0.5,2.6,2.3,2.3,4.2
		c-4.5,4.8-13.2,9.3-23.2,9.3c-13.4,0-18-7.7-18-18.4V63c0-3.4-0.2-3.7-3.1-3.7h-5c-1.8-0.6-2.3-3.9-1-5c5-1.8,9.5-4.7,13.4-7.3
		c2.9-2.1,6.9-5.5,11.9-12.6c1.1-0.6,4-0.5,4.8,0.8v12.1c0,3.1,0.2,3.2,3.1,3.2h14.3c0.8,0.6,1.3,1.6,1.3,3.1c0,1.8-0.5,4.7-2.1,5.6
		H1081z"/>
	<path class="st0" d="M1136.3,69.8c2.3,0,4.8-0.3,6.6-1.5c0.8-0.5,1.1-2.1,1.1-3.7c0-5.3-3.1-8.9-8.5-8.9c-6.8,0-12.6,6.4-12.6,11.6
		c0,2.3,2.3,2.4,7.4,2.4H1136.3z M1125.7,76.9c-3.7,0-4,0.3-4,2.9c0,12.1,7.7,23.8,22.7,23.8c4.5,0,10.6-1,15-8.4
		c1.8-0.3,4.2,1,4.2,3.7c-6.6,13.7-18.5,18.4-28.2,18.4c-21.8,0-33.5-15.3-33.5-32.9c0-20.3,14.7-36.1,34.8-36.1
		c16.8,0,25.8,10.8,25.8,23.2c0,3.1-0.8,5.3-5.8,5.3H1125.7z"/>
	<path class="st0" d="M1200.1,18.9c0,8.2-6.3,12.4-12.7,12.4c-7.4,0-11.9-5.2-11.9-12.1c0-7.4,6-12.4,12.7-12.4
		C1195.2,6.8,1200.1,12.1,1200.1,18.9 M1198.1,96.4c0,11.3,0.6,12.6,6,13.2l3.1,0.3c1.3,1,1.3,4.7-0.2,5.6
		c-5.6-0.3-11.9-0.5-19.3-0.5c-7.2,0-14,0.2-19.3,0.5c-1.4-1-1.4-4.7-0.2-5.6l3.1-0.3c5.3-0.6,6-1.9,6-13.2V72c0-6.4,0-8.2-3.1-10.3
		l-2.3-1.4c-1.1-1-1.1-3.9,0-4.8c7.6-2.1,19-6.4,23.8-9.3c1.3,0,2.3,0.5,2.9,1.4c-0.3,4.8-0.5,11.9-0.5,19.2V96.4z"/>
	<path class="st0" d="M1222.5,72c0-6.4,0-8.2-3.1-10.3l-2.3-1.4c-1.1-1-1.1-3.9,0-4.8c7.6-2.1,19.2-6.4,23.8-9.3
		c1.3,0,2.3,0.5,2.9,1.4c0,2.3-0.5,6.1-0.5,7.3c0,1,0.3,1.3,0.8,1.3c0.5,0,2.1-0.8,3.1-1.3c3.5-2.1,11.1-6.4,18.5-6.4
		c13.4,0,20.1,9.2,20.1,20.3v27.7c0,11.3,0.6,12.6,6.4,13.2l2.6,0.3c1.3,1,1.3,4.7-0.2,5.6c-5-0.3-11.8-0.5-19.5-0.5
		c-6.4,0-12.7,0.2-17.4,0.5c-1.4-1-1.4-4.7-0.2-5.6l2.9-0.5c3.7-0.5,4.3-1.8,4.3-10.6V71.6c0-6.3-3.2-11.4-11.3-11.4
		c-4.5,0-7.7,2.1-9,3.9c-1,1.1-1.3,3.1-1.3,6v28.8c0,8.9,0.6,10.2,4.7,10.8l2.6,0.3c1.3,1,1.3,4.7-0.2,5.6c-5-0.3-10.2-0.5-17.9-0.5
		c-6.8,0-13.4,0.2-19,0.5c-1.4-1-1.4-4.7-0.2-5.6l2.6-0.3c5.8-0.6,6.4-1.9,6.4-13.2V72z"/>
	<path class="st0" d="M430,115.5c-0.1,0-0.2,0-0.3-0.1c-0.9-0.4-1.5-1.3-1.7-2.5c-0.2-1.4,0.2-2.9,1.1-3.7c0.1-0.1,0.3-0.2,0.4-0.2
		l3.6-0.5c4.8-0.7,5.5-1.6,5.5-14V61.8c0-4.1,0-4.1-2.1-4.1h-5.9c-0.1,0-0.3,0-0.4-0.1c-0.9-0.4-1.5-1.4-1.6-2.5
		c-0.1-1.1,0.2-2.1,1-2.7c0,0,0.1-0.1,0.2-0.1l7.1-3.6c1.3-0.7,1.8-1.6,1.8-2.9v-1.8C440.4,5.7,462.8,0,476,0
		C489.5,0,500,7.1,500,16.2c0,6.1-5.1,9.4-10,9.4c-4,0-6.5-2-7.6-6.2c-2.4-8.8-8.9-11.2-12.5-11.2h0c-10.5,0-12.2,10.6-12.2,35.8
		v1.3c0,2.4,0,2.8,3.3,2.8h10.2c1.5,0,2.7,0.3,3.5,0.9c0.8,0.6,1.2,1.5,1.2,2.5c0,2.7-3.2,6.1-6.8,6.1h-8.8c-2.6,0-2.6,0-2.6,4.3
		v32.5c0,12.5,0.8,13.5,5.7,14l4.1,0.5c0.2,0,0.4,0.1,0.5,0.2c1,1,1.1,2.6,1,3.7c-0.2,1.1-0.7,2-1.5,2.4c-0.1,0.1-0.3,0.1-0.4,0.1
		c-5.1-0.3-11.6-0.5-19.3-0.5C442.7,115,437.2,115.2,430,115.5C430,115.5,430,115.5,430,115.5"/>
</g>
</svg>
