<?xml version="1.0" encoding="utf-8"?>
<!-- Generator: Adobe Illustrator 24.0.3, SVG Export Plug-In . SVG Version: 6.00 Build 0)  -->
<svg version="1.1" fill="#00674e" id="Layer_1" xmlns="http://www.w3.org/2000/svg" xmlns:xlink="http://www.w3.org/1999/xlink" x="0px" y="0px"
	 viewBox="0 0 384.5 222.9" style="enable-background:new 0 0 384.5 222.9;" xml:space="preserve">
<style type="text/css">
	.Arched_x0020_Green{fill:url(#SVGID_1_);stroke:#FFFFFF;stroke-width:0.25;stroke-miterlimit:1;}
</style>
<linearGradient id="SVGID_1_" gradientUnits="userSpaceOnUse" x1="-185.9776" y1="-157.2003" x2="-185.2704" y2="-157.9075">
	<stop  offset="0" style="stop-color:#20AC4B"/>
	<stop  offset="0.9831" style="stop-color:#19361A"/>
</linearGradient>
<g>
	<g>
		<path d="M76.4,101c-0.1-0.3-0.3-0.6-0.4-0.8c-0.2-0.2-0.3-0.4-0.6-0.5c-0.2-0.1-0.4-0.3-0.7-0.3c-0.3-0.1-0.6-0.1-0.9-0.1
			c-0.3,0-0.7,0-1,0.1L42.2,107c-1.4,0.3-2.8,0.9-4.2,1.7c-1.4,0.8-2.8,1.8-4.2,3c-1.3,1.2-2.6,2.5-3.6,3.9c-1,1.4-1.9,2.9-2.4,4.4
			l-17.2,48.8c-0.3,0.9-0.5,1.8-0.6,2.6c-0.1,0.8-0.1,1.4,0.1,2c0.1,0.5,0.4,1,0.7,1.3c0.3,0.3,0.8,0.6,1.3,0.7
			c0.5,0.1,1,0.1,1.6,0.1c0.6-0.1,1.2-0.2,1.9-0.5c0.7-0.2,1.4-0.6,2.2-1c0.8-0.4,1.6-0.9,2.5-1.4L60,146.4c1-0.6,1.9-1.4,2.8-2.4
			c0.9-0.9,1.7-2,2.5-3c0.8-1.1,1.4-2.2,2-3.3c0.5-1.1,1-2.2,1.3-3.3l7.8-29.7c0.1-0.5,0.2-1,0.3-1.4c0-0.4,0-0.8,0-1.2
			C76.6,101.7,76.5,101.3,76.4,101z M73.2,106.6c0,0.3-0.1,0.6-0.2,0.9l-5.2,19.3c-0.2,0.7-0.5,1.4-0.8,2c-0.4,0.7-0.8,1.4-1.3,2
			c-0.5,0.6-1,1.3-1.6,1.8c-0.6,0.5-1.2,1-1.7,1.3l-21.4,11.9c-0.4,0.2-0.8,0.4-1.1,0.5c-0.4,0.1-0.7,0.2-1,0.3
			c-0.3,0.1-0.6,0.1-0.9,0c-0.3,0-0.5-0.1-0.7-0.2c-0.2-0.1-0.4-0.3-0.6-0.5c-0.2-0.2-0.3-0.5-0.3-0.8c-0.1-0.3-0.1-0.7,0-1.1
			c0-0.4,0.1-0.8,0.3-1.3c0,0,0.1-0.3,0.3-0.9c0.2-0.6,0.4-1.4,0.7-2.3c0.3-1,0.7-2.1,1.1-3.4c0.4-1.2,0.8-2.6,1.3-4
			c0.6-1.8,1.2-3.7,1.8-5.5c0.6-1.8,1.1-3.5,1.6-4.9c0.5-1.5,0.9-2.7,1.1-3.5c0.3-0.9,0.4-1.4,0.4-1.4c0.3-0.8,0.7-1.6,1.2-2.4
			c0.5-0.8,1.1-1.5,1.8-2.2c0.7-0.7,1.4-1.3,2.1-1.7c0.7-0.5,1.5-0.8,2.2-1l18.3-5.4c0.2-0.1,0.5-0.1,0.7-0.1c0.2,0,0.4,0,0.6,0
			c0.2,0,0.3,0.1,0.5,0.2c0.1,0.1,0.3,0.2,0.4,0.3c0.1,0.2,0.2,0.3,0.3,0.5c0.1,0.2,0.1,0.4,0.1,0.7
			C73.2,106.1,73.2,106.3,73.2,106.6z M105.5,66.6c0-0.3-0.1-0.5-0.2-0.7c-0.1-0.2-0.2-0.4-0.3-0.5c-0.1-0.2-0.2-0.3-0.3-0.4
			c-0.1-0.1-0.3-0.2-0.4-0.3c-0.1-0.1-0.3-0.1-0.5-0.2L91,62.1c-0.5-0.1-1.1,0-1.6,0.2c-0.5,0.2-1.1,0.5-1.6,1c-0.5,0.4-1,1-1.3,1.7
			c-0.4,0.7-0.7,1.4-0.9,2.2l-6.7,25.3c-0.1,0.5-0.2,0.9-0.3,1.4c0,0.4,0,0.8,0,1.2c0,0.4,0.1,0.7,0.2,1c0.1,0.3,0.2,0.6,0.4,0.8
			c0.1,0.2,0.3,0.4,0.5,0.5c0.2,0.1,0.4,0.3,0.6,0.3c0.2,0.1,0.5,0.1,0.7,0.1c0.3,0,0.5,0,0.8-0.1l15.4-4c0.4-0.1,0.8-0.3,1.2-0.7
			c0.4-0.3,0.8-0.8,1.1-1.3c0.3-0.5,0.7-1.1,0.9-1.7c0.3-0.6,0.5-1.2,0.6-1.9l4.1-18.9c0.1-0.3,0.1-0.6,0.1-0.9c0-0.3,0-0.6,0-0.9
			C105.6,67.2,105.6,66.9,105.5,66.6z M99.8,73.9c0,0.2-0.1,0.4-0.1,0.7c0,0,0,0.1-0.1,0.4c-0.1,0.3-0.1,0.6-0.3,1.1
			c-0.1,0.5-0.2,1-0.4,1.6c-0.1,0.6-0.3,1.3-0.4,1.9c-0.2,0.9-0.4,1.9-0.6,2.8c-0.2,0.9-0.4,1.8-0.6,2.6c-0.2,0.8-0.3,1.4-0.4,1.9
			c-0.1,0.5-0.2,0.7-0.2,0.7c-0.1,0.4-0.3,0.9-0.4,1.3c-0.2,0.4-0.4,0.8-0.7,1.1c-0.3,0.3-0.5,0.6-0.8,0.8c-0.3,0.2-0.6,0.4-0.9,0.4
			l-10.1,2.1c-0.2,0-0.4,0.1-0.5,0c-0.2,0-0.3,0-0.5-0.1c-0.1-0.1-0.3-0.1-0.4-0.2c-0.1-0.1-0.2-0.2-0.3-0.3
			c-0.1-0.2-0.2-0.3-0.2-0.5c-0.1-0.2-0.1-0.4-0.1-0.6c0-0.2,0-0.5,0-0.7c0-0.3,0.1-0.5,0.2-0.8L86,74.3c0.1-0.5,0.3-1,0.6-1.4
			c0.2-0.4,0.5-0.8,0.9-1.1c0.3-0.3,0.7-0.6,1-0.7c0.3-0.2,0.7-0.2,1-0.2l9,0.6c0.1,0,0.2,0,0.4,0.1c0.1,0,0.2,0.1,0.3,0.2
			c0.1,0.1,0.2,0.2,0.2,0.3c0.1,0.1,0.1,0.2,0.2,0.3c0.1,0.1,0.1,0.3,0.1,0.5c0,0.2,0.1,0.4,0.1,0.5C99.8,73.5,99.8,73.7,99.8,73.9z
			"/>
		<path d="M77.3,92.2l-3-30.8c-0.1-0.6-0.2-1.3-0.3-2c-0.2-0.7-0.4-1.4-0.6-2.1c-0.2-0.7-0.5-1.4-0.8-2.1c-0.3-0.7-0.7-1.4-1-2.1
			c-0.3-0.5-0.5-0.9-0.8-1.4c-0.3-0.5-0.6-0.9-0.9-1.3c-0.3-0.4-0.6-0.8-1-1.2c-0.3-0.4-0.7-0.7-1-1L33.3,16.3
			c-1.6-1.5-3.1-2.5-4.4-3.2c-1.4-0.7-2.5-0.9-3.5-0.7c-0.9,0.2-1.6,0.8-2,1.8c-0.4,1-0.4,2.5-0.1,4.4l9.1,50.9
			c0.2,0.9,0.4,1.8,0.8,2.8c0.4,0.9,0.8,1.9,1.3,2.8c0.5,0.9,1.1,1.8,1.7,2.7c0.6,0.8,1.3,1.7,2,2.4c0.5,0.5,1,1,1.5,1.5
			c0.5,0.5,1,0.9,1.5,1.3c0.5,0.4,1,0.7,1.6,1c0.5,0.3,1,0.6,1.6,0.8L73,97c0.7,0.3,1.4,0.4,1.9,0.3c0.6-0.1,1-0.4,1.4-0.8
			c0.4-0.4,0.6-1,0.8-1.7C77.3,94,77.4,93.2,77.3,92.2z M73.9,91c-0.1,0.5-0.3,0.9-0.6,1.1c-0.3,0.3-0.6,0.4-1,0.5
			c-0.4,0-0.8,0-1.3-0.3l-17.2-8.1c-0.3-0.1-0.6-0.3-0.8-0.5c-0.3-0.2-0.6-0.4-0.8-0.6c-0.3-0.2-0.5-0.5-0.8-0.7
			c-0.3-0.3-0.5-0.5-0.8-0.8c-0.4-0.4-0.7-0.9-1-1.4c-0.3-0.5-0.6-1-0.8-1.5c-0.2-0.5-0.5-1-0.6-1.5c-0.2-0.5-0.3-1-0.4-1.5
			l-4.1-27.1c-0.1-0.9-0.1-1.7,0.1-2.3c0.2-0.6,0.5-1,1-1.2c0.4-0.2,1-0.2,1.6,0c0.6,0.2,1.4,0.6,2.1,1.2c0,0,0.3,0.2,0.7,0.6
			c0.5,0.4,1.1,0.9,1.9,1.5c0.8,0.6,1.7,1.3,2.7,2.1c1,0.8,2,1.6,3.1,2.4c1.4,1.1,2.8,2.2,4,3.2c1.3,1,2.4,1.9,3.4,2.7
			c1,0.8,1.8,1.4,2.4,1.9c0.6,0.4,0.9,0.7,0.9,0.7c0.2,0.2,0.4,0.4,0.6,0.6c0.2,0.2,0.4,0.4,0.6,0.7c0.2,0.2,0.4,0.5,0.6,0.8
			c0.2,0.3,0.4,0.5,0.5,0.8c0.2,0.4,0.5,0.8,0.7,1.3c0.2,0.4,0.4,0.9,0.5,1.3c0.2,0.4,0.3,0.9,0.4,1.3c0.1,0.4,0.2,0.9,0.2,1.3
			l2.1,20.1C74,89.9,74,90.5,73.9,91z"/>
	</g>
	<path d="M185.3,108.3c-4.3,0-7.3,0.5-9.2,1.5c-1.9,1-3,2.4-3.4,4.2c-0.4,1.8-0.6,4.6-0.6,8.4v35.2c0,6.5-0.2,11.3-0.7,14.6
		c-0.4,3.3-1.6,6.6-3.6,9.9c-3.6,6.4-8.5,10.8-14.9,13.3c-6.4,2.4-12.6,3.6-18.5,3.6c-4.4,0-8.8-0.6-13.5-1.7
		c-4.6-1.1-8.9-3-12.9-5.7c-4-2.6-7-6.1-9.1-10.3c-1.1-2.3-2-4.7-2.6-7.1c-0.6-2.4-1-4.6-1.1-6.7c-0.1-2.1-0.2-4.8-0.2-8.2L95,119.6
		c0-4.1-0.8-7-2.4-8.7c-1.6-1.7-5.4-2.5-11.4-2.5v-6.5h48.1v6.5c-4.1,0-7.1,0.4-9.1,1.2c-2,0.8-3.3,2-3.9,3.5
		c-0.6,1.5-0.9,3.7-0.9,6.5v39.7c0,4.1,0.2,7.7,0.6,10.7c0.4,3.1,1,5.8,1.9,8.1c1.6,3.8,4.3,6.8,8.1,9.1c3.8,2.3,8,3.4,12.6,3.4
		c4.9,0,9.5-1.2,13.7-3.6c4.2-2.4,7.2-5.5,8.8-9.4c1.3-3,2.2-6.1,2.6-9.3c0.4-3.2,0.6-7,0.6-11.5v-34.3c0-3.1-0.1-5.4-0.3-6.9
		c-0.2-1.5-0.7-2.8-1.5-4c-0.8-1.1-2.2-2-4.2-2.5c-1.9-0.5-4.6-0.8-8.1-0.8v-6.5h35.1V108.3z"/>
	<path d="M301.9,197.2H255v-6.5c3.8,0,6.8-0.4,8.7-1.3c2-0.8,3.2-2.1,3.8-3.7c0.6-1.6,0.8-3.7,0.8-6.3v-28.6h-44.2v28.6
		c0,3.9,0.8,6.8,2.5,8.6c1.6,1.8,5.4,2.7,11.2,2.7v6.5h-47.2v-6.5c3.8,0,6.7-0.4,8.7-1.3c2-0.8,3.3-2,3.9-3.6
		c0.6-1.6,0.9-3.7,0.9-6.4v-59.9c0-2.7-0.3-4.8-0.8-6.3c-0.6-1.5-1.8-2.7-3.7-3.6c-1.9-0.9-4.9-1.3-8.9-1.3v-6.5h47.2v6.5
		c-5.8,0-9.6,0.9-11.2,2.6c-1.7,1.7-2.5,4.6-2.5,8.6v23.5h44.2v-23.5c0-2.7-0.3-4.8-0.8-6.3c-0.5-1.5-1.7-2.7-3.7-3.6
		c-1.9-0.9-4.9-1.3-8.9-1.3v-6.5h46.9v6.5c-4,0-6.9,0.4-8.9,1.3c-1.9,0.9-3.2,2.1-3.7,3.6c-0.5,1.5-0.8,3.6-0.8,6.3v59.9
		c0,2.6,0.2,4.6,0.7,6.2c0.5,1.5,1.7,2.8,3.7,3.7c2,0.9,4.9,1.4,8.9,1.4V197.2z"/>
	<path d="M379.1,169.8c0,3-0.6,6.1-1.9,9.4c-1.3,3.3-3.2,6.5-5.7,9.5c-2.6,3-5.8,5.5-9.7,7.4c-3.9,1.9-8.4,2.8-13.5,2.8
		c-5.1,0-10.1-1.1-15.1-3.3c-5-2.2-9.2-5.5-12.7-9.8c-1.5,3.5-2.5,6.7-2.9,9.6h-6.5v-32.6h6.5c1.2,4.7,2.8,9.1,4.9,13.2
		c2.1,4.1,5,7.7,8.8,10.7c3.8,3,8.4,4.5,13.9,4.5c4.8,0,8.6-1.3,11.5-3.9c2.9-2.6,4.3-5.9,4.3-9.9c0-2.2-0.4-4.2-1.3-5.9
		c-0.9-1.7-2.2-3.2-3.9-4.5c-1.7-1.3-4-2.8-6.9-4.3c-2.9-1.5-6.3-3.1-10-4.8c-5.8-2.7-10.5-5.5-14.2-8.2c-3.7-2.8-6.5-5.4-8.4-8.1
		c-1.9-2.6-3.2-5.1-3.9-7.4c-0.7-2.3-1.1-4.7-1.1-7.1c0-4.3,1.1-8.5,3.4-12.6c2.3-4.1,5.7-7.5,10.1-10.2c4.4-2.6,9.6-4,15.4-4
		c4.5,0,8.7,1,12.7,3c4,2,7.5,4.7,10.5,8.2c0.8-2,1.6-4.7,2.3-8.3h6.6v26.6h-6.6c-4.7-14.5-12.8-21.7-24.5-21.7
		c-4.2,0-7.6,1.1-10.2,3.3c-2.6,2.2-3.8,5.1-3.8,8.6c0,2.8,0.8,5.2,2.4,7.2c1.6,2,3.7,3.8,6.3,5.2c2.6,1.5,6.8,3.5,12.6,6.3
		c7,3.3,12.5,6.2,16.5,8.6c4,2.4,7.3,5.5,10.1,9.2C377.7,160.1,379.1,164.6,379.1,169.8z"/>
</g>
</svg>
