<?xml version="1.0" encoding="utf-8"?>
<!-- Generator: Adobe Illustrator 26.5.2, SVG Export Plug-In . SVG Version: 6.00 Build 0)  -->
<svg version="1.1" id="logo" xmlns="http://www.w3.org/2000/svg" xmlns:xlink="http://www.w3.org/1999/xlink" x="0px" y="0px"
	 viewBox="0 0 820 263" style="enable-background:new 0 0 820 263;" xml:space="preserve">
<style type="text/css">
	.st0{fill:#002677;}
</style>
<g>
	<path class="st0" d="M347.23,183.15c8.65,0,12.11-3.92,12.11-11.39c0-7.91-4-11.6-11.91-11.6h-11.52v58.03
		c0,1.8-1.48,3.31-3.3,3.31h-7.11c-1.79,0-3.29-1.51-3.29-3.31v-62.74c0-1.8,1.5-3.4,3.29-3.4h23.31c14.31,0,23.22,6.5,23.22,19.71
		c0,10.41-6.59,15.41-14.21,17.41l15.01,28.12c0.31,0.6,0.6,1.21,0.6,1.91c0,1.19-0.79,2.3-1.9,2.3h-8.71
		c-1.01,0-2.11-0.81-2.6-1.91l-16.04-31.33c-0.41-0.78-1.13-2.03-1.13-3.23c0-1.05,0.52-1.88,2.36-1.88L347.23,183.15L347.23,183.15
		z"/>
	<path class="st0" d="M413.68,158.39c-14.39,0-16.86,12.94-16.86,28.39c0,15.59,2.64,28.39,16.65,28.39
		c13.76,0,17.06-12.25,17.06-28.39C430.52,171.34,427.84,158.39,413.68,158.39 M413.68,222.97c-13.4,0-30.47-4.61-30.47-36.18
		c0-31.38,16.95-36.18,30.47-36.18c13.51,0,30.46,4.8,30.46,36.18C444.13,217.77,427.56,222.97,413.68,222.97"/>
	<path class="st0" d="M483.45,222.97c-18.61,0-26.22-10.51-26.22-23.22v-44.3c0-1.8,1.5-3.39,3.3-3.39h7c1.81,0,3.31,1.59,3.31,3.39
		v45.1c0,11.5,5.53,14.62,13.25,14.62c10.17,0,13.26-5.99,13.26-14.62v-45.1c0-1.8,1.5-3.39,3.3-3.39h5.7c1.8,0,3.31,1.59,3.31,3.39
		v44.3C509.67,214.45,500.45,222.97,483.45,222.97"/>
	<path class="st0" d="M546.07,186.77h3.44c7.03,0,12.53-3.57,12.53-13.01c0-10.32-5.33-13.7-12.86-13.7h-10.76v58.12
		c0,1.8-1.31,3.31-3.1,3.31h-6.91c-1.8,0-3.29-1.51-3.29-3.31v-62.74c0-1.8,1.49-3.4,3.29-3.4h25.01c13.46,0,21.32,8.21,21.32,21.71
		c0,12.21-7.17,20.42-21.34,20.42c-2.7,0-5.36-0.26-7-0.53c-2.87-0.49-4.16-2.04-4.16-3.67
		C542.23,188.35,543.51,186.77,546.07,186.77"/>
	<path class="st0" d="M303.74,219.24c-3.66,1.61-9.37,3.98-21.37,3.98c-19.57,0-37.11-8.21-37.11-40.73
		c0-25.52,10.8-40.73,37.11-40.73c12.13,0,18.84,3.23,20.42,3.9c2.41,1.02,2.57,1.51,2.57,2.64c0,0.54-0.3,2.19-0.37,2.6
		c-0.39,1.98-0.95,5.22-1.26,6.97c-0.16,0.96-0.3,2.3-1.77,2.3c-1.21,0-2.27-1.4-2.92-2.08c-1.03-1.06-6.85-7.09-16.68-7.09
		c-18.66,0-21.82,17.88-21.82,31.49c0,18.77,6.1,31.5,21.82,31.5c6.01,0,9.16-0.97,10.14-1.24v-25.74c0-1.56,0.91-2.06,2.51-2.06
		h8.63c1.82,0,2.45,0.74,2.45,2.18v28.15C306.11,217.96,305.95,218.27,303.74,219.24"/>
	<path class="st0" d="M775.16,118.32h-6.6c-1.91,0-3.41-1.51-3.41-3.41V87.22h-26.8v27.69c0,1.9-1.49,3.41-3.4,3.41h-6.6
		c-1.91,0-3.41-1.51-3.41-3.41V52.28c0-1.81,1.5-3.4,3.31-3.4h6.8c1.81,0,3.3,1.59,3.3,3.4v25.17h26.8V52.28c0-1.81,1.5-3.4,3.3-3.4
		h6.81c1.8,0,3.31,1.59,3.31,3.4v62.63C778.57,116.8,777.05,118.32,775.16,118.32"/>
	<path class="st0" d="M70.33,119.52c-21.29,0-28.91-12-28.91-26.27V43.66c0-2.02,1.72-3.89,3.78-3.89h6.02
		c2.06,0,3.78,1.87,3.78,3.89v51c0,12.91,7.14,16.38,15.62,16.38c11.23,0,15.62-5.73,15.62-16.38v-51c0-2.02,1.72-3.89,3.78-3.89
		h5.3c2.07,0,3.78,1.87,3.78,3.89v49.58C99.1,109.75,89.07,119.52,70.33,119.52"/>
	<path class="st0" d="M366.1,56.92h-11.87v53.34h11.87c15.67,0,19.48-11.89,19.48-26.27C385.58,69.62,381.9,56.92,366.1,56.92
		 M369.3,118.32h-25.06c-1.8,0-3.31-1.56-3.31-3.35V52.33c0-1.8,1.51-3.45,3.31-3.45h25.06c16.48,0,29.57,8.84,29.57,35.11
		C398.87,110.67,384.78,118.32,369.3,118.32"/>
	<path class="st0" d="M470.3,118.33h-5.94c-2.14,0-3.83-1.67-3.83-3.81V82.79h-31.85v31.73c0,2.13-1.69,3.81-3.84,3.81h-5.94
		c-2.13,0-3.81-1.67-3.81-3.81v-70.4c0-2.03,1.67-3.83,3.71-3.83h6.17c2.02,0,3.71,1.8,3.71,3.83v28.67h31.85V44.12
		c0-2.03,1.69-3.83,3.72-3.83h6.16c2.02,0,3.71,1.8,3.71,3.83v70.4C474.12,116.65,472.43,118.33,470.3,118.33"/>
	<path class="st0" d="M657.05,118.33h-33.52c-1.9,0-3.41-1.5-3.41-3.41V52.28c0-1.8,1.51-3.4,3.31-3.4h7.01c1.8,0,3.3,1.6,3.3,3.4
		v56.25h23.31c1.8,0,3.3,1.61,3.3,3.41v3.08C660.35,116.82,658.84,118.33,657.05,118.33"/>
	<path class="st0" d="M203.73,118.33h-6.79c-1.9,0-3.4-1.56-3.4-3.46V52.34c0-1.8,1.5-3.46,3.31-3.46h6.97c1.81,0,3.3,1.66,3.3,3.46
		v62.53C207.13,116.76,205.64,118.33,203.73,118.33"/>
	<path class="st0" d="M267.98,58.68h-15.79v56.19c0,1.9-1.5,3.46-3.4,3.46H242c-1.9,0-3.4-1.56-3.4-3.46V58.68h-15.9
		c-1.8,0-3.3-1.49-3.3-3.29V52.3c0-1.8,1.5-3.42,3.3-3.42h45.27c1.8,0,3.29,1.63,3.29,3.42v3.09
		C271.27,57.19,269.78,58.68,267.98,58.68"/>
	<path class="st0" d="M709.27,58.68H692.4v56.19c0,1.9-1.49,3.46-3.39,3.46h-6.8c-1.88,0-3.39-1.56-3.39-3.46V58.68h-16.98
		c-1.81,0-3.3-1.49-3.3-3.29V52.3c0-1.8,1.49-3.42,3.3-3.42h47.43c1.8,0,3.29,1.63,3.29,3.42v3.09
		C712.56,57.19,711.07,58.68,709.27,58.68"/>
	<path class="st0" d="M325.57,118.33H286.4c-1.8,0-3.3-1.16-3.3-2.96V52.3c0-1.8,1.5-3.42,3.3-3.42h37.75c1.81,0,3.3,1.63,3.3,3.42
		v2.76c0,1.8-1.49,3.29-3.3,3.29h-27.46V77.6h24.68c1.8,0,3.3,1.6,3.3,3.4v2.76c0,1.8-1.5,3.3-3.3,3.3h-24.68v21.76l28.88,0.04
		c1.8,0,3.29,1.59,3.29,3.39v3.13C328.85,117.17,327.36,118.33,325.57,118.33"/>
	<path class="st0" d="M534.73,118.33h-39.17c-1.8,0-3.3-1.16-3.3-2.96V52.3c0-1.8,1.5-3.42,3.3-3.42h37.75c1.8,0,3.3,1.63,3.3,3.42
		v2.76c0,1.8-1.5,3.29-3.3,3.29h-27.46V77.6h24.67c1.81,0,3.3,1.6,3.3,3.4v2.76c0,1.8-1.49,3.3-3.3,3.3h-24.67v21.76l28.88,0.04
		c1.8,0,3.29,1.59,3.29,3.39v3.13C538.02,117.17,536.53,118.33,534.73,118.33"/>
	<path class="st0" d="M169.35,118.33H159.1c-3.18,0-4.68-1.47-5.48-3.26c-5.09-10.81-24.8-55.04-24.8-55.04v54.94
		c0,1.8-1.5,3.36-3.3,3.36h-4.61c-1.81,0-3.3-1.56-3.3-3.36V52.21c0-1.8,1.49-3.34,3.3-3.34h10.03c2.96,0,4.78,1.03,5.79,3.25
		c5.3,11.6,24.71,54.72,24.71,54.72V52.21c0-1.8,1.5-3.34,3.3-3.34h4.62c1.8,0,3.3,1.54,3.3,3.34v62.75
		C172.65,116.76,171.14,118.33,169.35,118.33"/>
	<path class="st0" d="M566.57,93.57l10.35-34.41l9.74,34.41H566.57z M607.15,113.91L587.2,52.07c-0.7-2.11-2.39-3.2-4.88-3.2h-8.82
		c-2.56,0-3.98,1.1-4.69,3.2l-19.89,62.23c-0.21,0.6-0.42,1.02-0.42,1.61c0,1.39,1.21,2.4,2.4,2.4h4.5c2.39,0,4.13-1.11,4.83-3.21
		l3.93-12.99h25.3l4.1,12.99c0.58,1.81,1.91,3.21,4.96,3.21h6.53c1.5,0,2.5-1.01,2.5-2.51
		C607.55,115.11,607.34,114.61,607.15,113.91"/>
</g>
</svg>
