<?xml version="1.0" standalone="no"?>
<!DOCTYPE svg PUBLIC "-//W3C//DTD SVG 20010904//EN"
 "http://www.w3.org/TR/2001/REC-SVG-20010904/DTD/svg10.dtd">
<svg version="1.0" xmlns="http://www.w3.org/2000/svg"
 width="1024.000000pt" height="1024.000000pt" viewBox="0 0 1024.000000 1024.000000"
 preserveAspectRatio="xMidYMid meet">

<g transform="translate(0.000000,1024.000000) scale(0.100000,-0.100000)"
fill="#00B8A9" stroke="none">
<path d="M4220 8124 c-163 -19 -224 -29 -353 -55 -758 -151 -1452 -641 -1862
-1314 -173 -283 -307 -638 -364 -962 -63 -353 -52 -790 28 -1148 83 -371 250
-739 480 -1055 460 -634 1133 -1049 1901 -1172 126 -20 181 -23 415 -23 281 0
359 7 580 51 637 125 1235 484 1663 999 41 50 77 93 81 97 4 4 43 15 88 23
178 34 417 124 647 243 344 179 658 413 967 722 236 235 401 446 538 684 88
155 178 389 197 511 3 26 21 72 40 102 52 86 75 166 81 276 8 148 -20 251 -97
354 -46 60 -128 106 -227 126 -58 12 -65 16 -94 60 -42 64 -101 113 -179 150
-53 25 -81 32 -151 35 l-86 4 -6 122 c-22 421 -147 708 -333 762 -90 26 -188
16 -260 -27 -67 -41 -149 -126 -186 -195 -61 -112 -62 -125 -63 -634 l-2 -465
-55 -85 c-104 -159 -133 -255 -133 -440 0 -149 14 -219 64 -327 l29 -61 -96
-129 -97 -128 -6 155 c-27 650 -223 1181 -617 1677 -109 137 -317 346 -449
451 -399 316 -855 510 -1398 594 -99 15 -191 21 -390 23 -143 2 -276 1 -295
-1z m672 -263 c771 -118 1394 -513 1823 -1155 288 -432 429 -944 412 -1496
-23 -700 -280 -1299 -770 -1792 -564 -569 -1349 -855 -2133 -777 -610 60
-1170 327 -1611 768 -408 408 -659 906 -749 1486 -27 171 -27 619 0 785 77
488 275 920 589 1286 456 532 1086 850 1817 918 119 11 489 -3 622 -23z m3211
-390 c102 -39 152 -212 164 -567 l6 -181 -59 -6 c-67 -7 -139 -30 -235 -76
-36 -17 -69 -31 -73 -31 -3 0 -5 161 -4 358 3 318 5 361 21 397 41 90 111 132
180 106z m584 -907 c46 -34 63 -79 63 -170 0 -160 -73 -349 -159 -409 -37 -26
-51 -30 -111 -30 -38 0 -71 3 -75 7 -3 3 12 30 35 59 71 94 103 170 108 259 3
45 -1 101 -8 132 -14 59 -53 142 -72 155 -20 12 37 22 119 20 55 -2 79 -7 100
-23z m-399 -127 c39 -39 43 -135 10 -209 -31 -67 -111 -163 -185 -222 -140
-112 -133 -104 -133 -148 0 -32 7 -47 34 -74 43 -43 90 -45 163 -8 l52 25 38
-25 c77 -51 196 -80 269 -67 44 8 49 7 98 -30 72 -55 146 -81 233 -83 84 -1
82 8 28 -118 -42 -98 -155 -289 -233 -393 -92 -123 -265 -317 -398 -445 -287
-277 -595 -496 -929 -660 -125 -62 -345 -153 -353 -145 -1 1 16 35 39 76 132
232 254 577 299 849 l12 75 102 105 c123 128 213 239 312 385 85 125 96 162
65 215 -50 85 -79 149 -91 199 -17 74 -8 230 19 304 60 169 222 341 386 410
58 25 129 17 163 -16z m736 -101 c77 -32 116 -134 96 -248 -33 -181 -148 -284
-277 -249 l-43 12 35 48 c70 98 125 248 141 390 3 34 8 61 11 61 2 0 19 -6 37
-14z"/>
<path d="M5535 6199 c-107 -16 -207 -70 -286 -156 -105 -112 -159 -302 -110
-381 34 -53 100 -67 157 -33 23 14 40 39 62 92 55 132 113 178 225 179 109 0
178 -50 239 -175 41 -85 73 -115 121 -115 100 0 141 94 101 231 -67 229 -296
390 -509 358z"/>
<path d="M3350 6186 c-138 -29 -273 -137 -345 -276 -33 -63 -39 -87 -43 -152
-4 -75 -4 -78 25 -107 40 -40 91 -49 140 -25 30 15 46 34 75 89 43 83 106 143
174 168 67 23 101 22 162 -9 61 -30 107 -80 137 -148 39 -87 91 -119 160 -96
125 41 88 278 -67 430 -62 61 -170 117 -253 130 -74 12 -95 12 -165 -4z"/>
<path d="M3371 5160 c-105 -22 -185 -88 -215 -178 -22 -64 -20 -192 4 -288 23
-93 99 -253 162 -341 108 -154 292 -325 462 -432 330 -206 734 -257 1106 -139
466 148 895 607 940 1007 19 171 -42 293 -175 352 -66 29 -176 29 -350 1 -558
-91 -1127 -94 -1619 -8 -175 31 -258 38 -315 26z m1062 -597 c-7 -2 -19 -2
-25 0 -7 3 -2 5 12 5 14 0 19 -2 13 -5z m124 0 c-20 -2 -52 -2 -70 0 -17 2 0
4 38 4 39 0 53 -2 32 -4z m-219 -10 c-10 -2 -26 -2 -35 0 -10 3 -2 5 17 5 19
0 27 -2 18 -5z m340 0 c-10 -2 -26 -2 -35 0 -10 3 -2 5 17 5 19 0 27 -2 18 -5z
m-411 -9 c-3 -3 -12 -4 -19 -1 -8 3 -5 6 6 6 11 1 17 -2 13 -5z m480 0 c-3 -3
-12 -4 -19 -1 -8 3 -5 6 6 6 11 1 17 -2 13 -5z m-708 -68 c-10 -9 -89 -46 -89
-41 0 6 72 44 84 45 5 0 7 -2 5 -4z m1041 -62 c0 -2 -9 0 -20 6 -11 6 -20 13
-20 16 0 2 9 0 20 -6 11 -6 20 -13 20 -16z m31 -21 c13 -16 12 -17 -3 -4 -17
13 -22 21 -14 21 2 0 10 -8 17 -17z m-1231 -7 c0 -2 -8 -10 -17 -17 -16 -13
-17 -12 -4 4 13 16 21 21 21 13z m1271 -23 c13 -16 12 -17 -3 -4 -10 7 -18 15
-18 17 0 8 8 3 21 -13z m-1357 -56 c-22 -24 -41 -42 -43 -40 -5 3 70 83 77 83
3 0 -13 -19 -34 -43z m1467 -54 c13 -16 12 -17 -3 -4 -10 7 -18 15 -18 17 0 8
8 3 21 -13z m-1564 -85 c-3 -8 -6 -5 -6 6 -1 11 2 17 5 13 3 -3 4 -12 1 -19z
m1573 -48 c-43 -54 -49 -51 -8 4 18 24 35 42 37 40 2 -2 -11 -21 -29 -44z
m-1529 -17 c13 -16 12 -17 -3 -4 -17 13 -22 21 -14 21 2 0 10 -8 17 -17z m50
-40 c13 -16 12 -17 -3 -4 -17 13 -22 21 -14 21 2 0 10 -8 17 -17z m1419 3 c0
-2 -8 -10 -17 -17 -16 -13 -17 -12 -4 4 13 16 21 21 21 13z m-1285 -86 c3 -6
-1 -7 -9 -4 -18 7 -21 14 -7 14 6 0 13 -4 16 -10z m1175 6 c0 -2 -7 -7 -16
-10 -8 -3 -12 -2 -9 4 6 10 25 14 25 6z m-80 -40 c0 -2 -7 -7 -16 -10 -8 -3
-12 -2 -9 4 6 10 25 14 25 6z m-940 -36 c18 -12 2 -12 -25 0 -13 6 -15 9 -5 9
8 0 22 -4 30 -9z m147 -46 c-3 -3 -12 -4 -19 -1 -8 3 -5 6 6 6 11 1 17 -2 13
-5z m50 -10 c-3 -3 -12 -4 -19 -1 -8 3 -5 6 6 6 11 1 17 -2 13 -5z m60 -10
c-3 -3 -12 -4 -19 -1 -8 3 -5 6 6 6 11 1 17 -2 13 -5z m111 -11 c-16 -2 -40
-2 -55 0 -16 2 -3 4 27 4 30 0 43 -2 28 -4z m120 0 c-15 -2 -42 -2 -60 0 -18
2 -6 4 27 4 33 0 48 -2 33 -4z"/>
</g>
</svg>
