<?xml version="1.0" standalone="no"?>
<!DOCTYPE svg PUBLIC "-//W3C//DTD SVG 20010904//EN"
 "http://www.w3.org/TR/2001/REC-SVG-20010904/DTD/svg10.dtd">
<svg version="1.0" xmlns="http://www.w3.org/2000/svg"
 width="1024.000000pt" height="1024.000000pt" viewBox="0 0 1024.000000 1024.000000"
 preserveAspectRatio="xMidYMid meet">

<g transform="translate(0.000000,1024.000000) scale(0.100000,-0.100000)"
fill="#00B8A9" stroke="none">
<path d="M4293 9064 c-622 -67 -1182 -286 -1673 -652 -130 -97 -436 -396 -544
-532 -246 -308 -479 -759 -580 -1120 -191 -682 -161 -1413 84 -2064 121 -321
297 -627 516 -901 110 -137 319 -347 441 -444 85 -67 91 -74 82 -97 -20 -54
-50 -255 -56 -375 -16 -343 88 -636 304 -853 206 -208 475 -316 784 -316 237
0 468 70 661 202 194 131 324 336 336 528 2 47 9 90 13 96 5 7 63 14 137 19
267 15 521 65 792 155 365 122 727 312 980 515 464 373 793 789 1010 1279 145
328 238 680 271 1028 18 192 7 615 -21 793 -66 434 -191 790 -410 1170 -176
308 -475 656 -755 880 -484 387 -1052 619 -1695 690 -165 18 -507 18 -677 -1z
m772 -302 c453 -71 837 -218 1205 -464 186 -123 287 -205 430 -348 479 -477
778 -1091 855 -1754 21 -182 21 -499 0 -681 -49 -429 -180 -823 -396 -1192
-231 -394 -612 -786 -1011 -1039 -368 -233 -869 -403 -1295 -440 l-83 -7 0 69
c0 38 -7 98 -14 134 -8 36 -13 65 -12 66 0 0 98 33 216 73 287 97 384 144 458
218 107 107 167 271 143 396 -27 144 -125 270 -248 317 -105 41 -161 34 -568
-68 -445 -112 -1021 -259 -1046 -267 -14 -5 -19 -1 -19 13 0 36 -42 156 -82
237 -81 162 -169 260 -282 315 -199 97 -404 26 -497 -173 -28 -61 -41 -123
-74 -367 -19 -134 -35 -210 -46 -210 -4 0 -68 60 -141 133 -365 361 -621 782
-763 1252 -284 942 -103 1927 496 2698 464 596 1173 993 1949 1091 191 24 189
24 450 21 184 -2 277 -8 375 -23z m-1872 -4665 c47 -20 101 -85 147 -177 55
-109 70 -174 70 -298 l0 -104 34 -34 c29 -29 41 -34 83 -34 29 0 209 42 453
105 676 176 1163 297 1196 297 44 0 93 -28 105 -60 27 -71 -25 -180 -108 -225
-81 -44 -560 -211 -806 -281 -104 -30 -119 -38 -146 -72 -25 -32 -28 -101 -6
-144 8 -15 31 -38 51 -50 30 -19 43 -21 87 -15 101 15 120 13 128 -15 15 -54
9 -194 -10 -236 -17 -38 -25 -44 -85 -64 -37 -12 -80 -33 -96 -47 -40 -33 -57
-91 -41 -142 11 -40 70 -101 96 -101 22 0 -7 -75 -53 -135 -92 -122 -255 -212
-450 -251 -95 -18 -316 -18 -404 1 -321 68 -545 322 -588 670 -20 161 -2 301
80 604 65 244 76 300 105 530 26 206 42 257 85 278 31 16 34 16 73 0z"/>
<path d="M3175 7021 c-92 -43 -130 -135 -85 -208 26 -43 68 -63 133 -63 181 0
405 -76 668 -225 52 -31 108 -55 123 -55 47 0 95 30 121 75 36 60 33 107 -7
150 -37 39 -238 162 -343 211 -242 111 -509 162 -610 115z"/>
<path d="M5414 6707 c-32 -29 -38 -41 -42 -89 -5 -67 14 -110 61 -135 29 -16
76 -18 477 -23 245 -3 459 -1 477 3 73 18 110 111 75 191 -37 83 -22 81 -549
84 l-462 3 -37 -34z"/>
<path d="M3474 6332 c-179 -64 -304 -272 -304 -506 1 -225 103 -422 257 -494
51 -24 70 -27 158 -27 90 0 106 3 160 29 100 50 172 139 223 275 33 90 42 276
17 371 -68 262 -305 425 -511 352z"/>
<path d="M5769 6277 c-127 -54 -207 -145 -260 -297 -19 -54 -23 -86 -22 -190
0 -107 3 -136 25 -202 44 -134 119 -227 230 -285 47 -24 64 -28 143 -28 79 0
96 4 144 28 101 54 179 151 229 286 18 50 25 93 29 176 8 179 -32 305 -132
413 -79 86 -140 115 -245 119 -72 3 -94 0 -141 -20z"/>
<path d="M4530 4810 c-243 -34 -454 -104 -617 -206 -112 -69 -141 -125 -109
-209 20 -50 66 -85 113 -85 17 0 80 25 140 55 235 117 376 154 618 162 135 4
189 2 260 -11 124 -24 250 -67 364 -126 55 -29 108 -50 127 -50 66 0 134 77
134 151 0 67 -32 97 -180 171 -213 106 -382 146 -635 153 -82 2 -179 0 -215
-5z"/>
</g>
</svg>
