<?xml version="1.0" standalone="no"?>
<!DOCTYPE svg PUBLIC "-//W3C//DTD SVG 20010904//EN"
 "http://www.w3.org/TR/2001/REC-SVG-20010904/DTD/svg10.dtd">
<svg version="1.0" xmlns="http://www.w3.org/2000/svg"
 width="1024.000000pt" height="1024.000000pt" viewBox="0 0 1024.000000 1024.000000"
 preserveAspectRatio="xMidYMid meet">

<g transform="translate(0.000000,1024.000000) scale(0.100000,-0.100000)"
fill="#00B8A9" stroke="none">
<path d="M4814 8039 c-443 -39 -903 -199 -1274 -443 -200 -131 -444 -348 -601
-533 -212 -248 -409 -620 -513 -963 -89 -295 -121 -543 -113 -875 9 -390 71
-680 214 -1005 139 -315 307 -562 548 -809 463 -474 1040 -745 1730 -812 165
-16 503 -6 670 20 305 47 635 157 894 298 126 68 334 211 431 295 82 71 88 74
169 92 287 61 650 245 939 475 257 204 450 426 638 734 68 111 77 122 136 155
118 69 327 300 470 522 69 105 200 339 240 428 84 183 121 361 100 474 -33
177 -150 259 -318 224 -38 -7 -70 -13 -71 -12 -2 1 5 40 13 86 22 116 15 275
-15 352 -40 104 -126 168 -235 176 -85 7 -157 -13 -230 -62 l-63 -43 -6 62
c-11 119 -66 223 -145 275 -159 105 -379 40 -487 -144 -43 -73 -72 -173 -95
-323 -25 -168 -37 -232 -56 -301 l-15 -53 -42 36 c-23 20 -75 52 -114 71 -40
20 -73 41 -73 47 0 20 -140 268 -213 377 -504 753 -1344 1196 -2257 1189 -91
-1 -206 -5 -256 -10z m604 -224 c611 -87 1179 -402 1564 -867 100 -120 227
-306 288 -422 l45 -85 -40 -34 c-76 -65 -111 -180 -94 -302 10 -72 26 -120 67
-202 47 -92 69 -168 82 -278 25 -223 77 -451 117 -514 20 -32 13 -73 -52 -301
-109 -378 -257 -721 -436 -1009 -335 -537 -864 -874 -1534 -977 -160 -25 -558
-25 -718 -1 -573 88 -1049 327 -1451 731 -390 391 -623 857 -713 1426 -14 89
-18 173 -18 365 0 217 3 267 23 378 94 523 327 975 702 1361 422 435 974 690
1610 746 136 11 427 4 558 -15z m2904 -845 c15 -16 32 -49 39 -72 16 -56 16
-272 0 -368 -29 -174 -64 -336 -87 -396 -37 -100 -31 -154 23 -182 27 -15 59
-4 89 29 12 13 52 110 89 214 37 105 88 232 113 282 114 234 261 321 327 193
24 -46 19 -180 -9 -292 -31 -121 -61 -196 -157 -391 -43 -86 -81 -174 -85
-194 -6 -32 -3 -40 20 -60 61 -52 105 -28 213 116 112 149 180 216 260 253 78
37 108 33 129 -18 38 -91 -46 -345 -207 -625 -191 -333 -344 -517 -537 -646
-46 -31 -90 -65 -98 -77 -8 -11 -52 -78 -98 -148 -281 -428 -610 -730 -1016
-933 -91 -46 -291 -127 -298 -121 -2 2 34 59 78 127 96 145 265 483 345 689
76 194 158 443 196 600 l32 127 -37 86 c-50 118 -81 243 -105 436 -21 170 -45
253 -125 441 -76 180 -28 279 106 217 106 -49 233 -196 265 -306 18 -63 27
-77 66 -101 36 -22 147 -165 203 -260 25 -41 53 -105 64 -141 20 -67 32 -79
75 -79 37 0 55 10 70 41 21 39 19 77 -7 156 -42 128 -201 353 -274 388 -27 13
-34 22 -34 44 0 16 -7 48 -15 71 -14 39 -13 48 4 104 29 95 67 274 97 456 30
190 50 250 101 310 65 76 133 87 185 30z"/>
<path d="M5909 6800 c-67 -12 -108 -36 -126 -75 -20 -41 -9 -74 32 -101 24
-15 34 -16 108 -4 160 24 332 -26 497 -146 95 -69 195 42 115 127 -44 45 -145
116 -206 143 -109 47 -316 76 -420 56z"/>
<path d="M3920 6731 c-138 -37 -271 -129 -357 -244 -33 -46 -43 -68 -43 -98 0
-50 27 -79 75 -79 30 0 47 11 110 70 159 147 249 187 439 193 86 4 90 5 118
35 45 51 33 91 -35 123 -56 25 -215 25 -307 0z"/>
<path d="M5973 6176 c-65 -21 -124 -60 -174 -113 -94 -100 -132 -202 -131
-348 1 -194 87 -337 249 -413 50 -23 71 -27 148 -27 74 0 98 4 133 23 137 73
218 215 229 402 11 202 -71 375 -216 454 -63 34 -172 44 -238 22z m235 -212
c29 -20 52 -66 52 -103 0 -37 -41 -87 -76 -94 -66 -12 -144 44 -144 104 0 36
23 84 47 98 27 16 96 13 121 -5z"/>
<path d="M3998 6116 c-261 -73 -381 -515 -203 -749 72 -94 210 -154 337 -145
176 13 282 136 311 359 20 162 -33 330 -140 434 -94 93 -204 130 -305 101z
m225 -187 c58 -30 76 -112 37 -162 -24 -31 -78 -50 -114 -41 -41 10 -76 59
-76 106 0 32 7 47 34 74 36 36 77 44 119 23z"/>
<path d="M5685 4950 c-33 -4 -118 -22 -190 -39 -230 -54 -319 -64 -514 -58
-140 4 -204 11 -311 33 -183 38 -340 40 -418 5 -61 -27 -114 -84 -130 -140
-17 -53 -15 -166 3 -235 39 -148 138 -309 275 -447 272 -273 562 -349 927
-243 299 86 540 288 669 559 58 122 77 206 72 321 -3 81 -7 98 -34 140 -55 90
-182 128 -349 104z"/>
<path d="M2134 3658 l-19 -23 23 19 c21 18 27 26 19 26 -2 0 -12 -10 -23 -22z"/>
<path d="M2270 3655 c13 -14 26 -25 28 -25 3 0 -5 11 -18 25 -13 14 -26 25
-28 25 -3 0 5 -11 18 -25z"/>
<path d="M2515 3310 c10 -11 20 -20 23 -20 3 0 -3 9 -13 20 -10 11 -20 20 -23
20 -3 0 3 -9 13 -20z"/>
<path d="M2270 3276 c0 -2 8 -10 18 -17 15 -13 16 -12 3 4 -13 16 -21 21 -21
13z"/>
<path d="M2615 3200 c38 -38 72 -70 74 -70 3 0 -26 32 -64 70 -38 39 -72 70
-74 70 -3 0 26 -31 64 -70z"/>
<path d="M2300 3236 c0 -2 8 -10 18 -17 15 -13 16 -12 3 4 -13 16 -21 21 -21
13z"/>
<path d="M2330 3196 c0 -2 8 -10 18 -17 15 -13 16 -12 3 4 -13 16 -21 21 -21
13z"/>
<path d="M2370 3147 c0 -2 15 -16 33 -33 l32 -29 -29 33 c-28 30 -36 37 -36
29z"/>
<path d="M2720 3106 c0 -2 8 -10 18 -17 15 -13 16 -12 3 4 -13 16 -21 21 -21
13z"/>
<path d="M2530 2985 c19 -19 36 -35 39 -35 3 0 -10 16 -29 35 -19 19 -36 35
-39 35 -3 0 10 -16 29 -35z"/>
<path d="M2590 2936 c0 -2 8 -10 18 -17 15 -13 16 -12 3 4 -13 16 -21 21 -21
13z"/>
<path d="M2645 2890 c10 -11 20 -20 23 -20 3 0 -3 9 -13 20 -10 11 -20 20 -23
20 -3 0 3 -9 13 -20z"/>
<path d="M3154 2708 l-19 -23 23 19 c21 18 27 26 19 26 -2 0 -12 -10 -23 -22z"/>
<path d="M3078 2663 c7 -3 16 -2 19 1 4 3 -2 6 -13 5 -11 0 -14 -3 -6 -6z"/>
</g>
</svg>
