<?xml version="1.0" encoding="UTF-8"?>
<svg width="512" height="512" viewBox="0 0 512 512" fill="none" xmlns="http://www.w3.org/2000/svg">
  <!-- Background circle -->
  <circle cx="256" cy="256" r="256" fill="#1A73E8"/>
  
  <!-- Document shape -->
  <path d="M340 120H200C189 120 180 129 180 140V380C180 391 189 400 200 400H320C331 400 340 391 340 380V140C340 129 331 120 320 120H200" stroke="white" stroke-width="24" stroke-linecap="round"/>
  
  <!-- Folded corner -->
  <path d="M320 120L320 170H370" fill="#1A73E8"/>
  <path d="M320 120L320 170H370L320 120Z" stroke="white" stroke-width="16" stroke-linejoin="round"/>
  
  <!-- Document lines -->
  <line x1="210" y1="210" x2="310" y2="210" stroke="white" stroke-width="16" stroke-linecap="round"/>
  <line x1="210" y1="250" x2="270" y2="250" stroke="white" stroke-width="16" stroke-linecap="round"/>
  
  <!-- Checkmark -->
  <path d="M220 310L240 330L290 280" stroke="#4CAF50" stroke-width="24" stroke-linecap="round" stroke-linejoin="round"/>
</svg> 